<svg id="Layer_2" data-name="Layer 2" xmlns="http://www.w3.org/2000/svg" viewBox="0 0 683.41 651.9"><defs><style>.cls-1{fill:#58585a;}.cls-2{fill:#39aea8;}.cls-3{fill:#6d6e71;}.cls-4{fill:#939598;}.cls-5{fill:#818285;}.cls-6{fill:#929497;}.cls-7{fill:#808184;}.cls-8{fill:#6d6e70;}.cls-9{fill:#58595b;fill-rule:evenodd;}.cls-10{fill:#3eaca7;}</style></defs><path class="cls-1" d="M583.06,306.2V246.33c99.55,0,56.78-184,206.08-184l-.33,58.91C696.62,121.28,732,306.2,583.06,306.2Z" transform="translate(-341.59 -61.29)"/><path class="cls-2" d="M555.3,121.52H439.56A38.45,38.45,0,0,0,401.1,160v44.26a38.45,38.45,0,0,0,38.46,38.46H556l-1.45,64.59H416a74.39,74.39,0,0,1-74.38-74.38V135.67A74.38,74.38,0,0,1,416,61.29h138.6Z" transform="translate(-341.59 -61.29)"/><rect class="cls-3" x="475.67" y="1.09" width="207.54" height="57.68"/><rect class="cls-4" x="475.67" y="187.23" width="207.54" height="57.68"/><rect class="cls-5" x="475.67" y="93.81" width="207.54" height="58.37"/><rect class="cls-6" x="0.23" y="310.04" width="80.71" height="341.86"/><rect class="cls-7" x="117.41" y="310.04" width="80.67" height="341.86"/><rect class="cls-8" x="234.51" y="310.04" width="80.73" height="341.86"/><polygon class="cls-9" points="505.28 310.04 351.63 310.04 351.63 651.9 432.34 651.9 432.34 383.13 505.28 383.13 505.28 310.04"/><path class="cls-10" d="M883.2,375v71.08c38.9,14.31,63.15,50,63.15,96.24v1c0,60.54-41.53,102.07-103,102.07h-33v67.83h33c107.47,0,181.69-74.7,181.69-170.9v-1C1025,457.53,968.73,390.8,883.2,375Z" transform="translate(-341.59 -61.29)"/></svg>