<svg id="Layer_2" data-name="Layer 2" xmlns="http://www.w3.org/2000/svg" viewBox="0 0 683.21 246"><defs><style>.cls-1{fill:#58585a;}.cls-2{fill:#39aea8;}.cls-3{fill:#6d6e71;}.cls-4{fill:#939598;}.cls-5{fill:#818285;}</style></defs><path class="cls-1" d="M582.86,505.91V446c99.55,0,56.78-184,206.09-184l-.34,58.9C696.43,321,731.82,505.91,582.86,505.91Z" transform="translate(-341.39 -261)"/><path class="cls-2" d="M555.1,321.23H439.36a38.46,38.46,0,0,0-38.46,38.46V404a38.46,38.46,0,0,0,38.46,38.46H555.83L554.38,507H415.77a74.39,74.39,0,0,1-74.38-74.38V335.38A74.39,74.39,0,0,1,415.77,261H554.38Z" transform="translate(-341.39 -261)"/><rect class="cls-3" x="475.67" y="1.09" width="207.54" height="57.68"/><rect class="cls-4" x="475.67" y="187.23" width="207.54" height="57.68"/><rect class="cls-5" x="475.67" y="93.81" width="207.54" height="58.37"/></svg>