<?xml version="1.0" standalone="no"?>
<!DOCTYPE svg PUBLIC "-//W3C//DTD SVG 20010904//EN"
 "http://www.w3.org/TR/2001/REC-SVG-20010904/DTD/svg10.dtd">
<svg version="1.0" xmlns="http://www.w3.org/2000/svg"
 width="820.000000pt" height="490.000000pt" viewBox="0 0 820.000000 490.000000"
 preserveAspectRatio="xMidYMid meet">
<metadata>
Created by potrace 1.16, written by Peter Selinger 2001-2019
</metadata>
<g transform="translate(0.000000,490.000000) scale(0.100000,-0.100000)"
fill="#000000" stroke="none">
<path d="M660 2455 l0 -1695 375 0 375 0 0 1695 0 1695 -375 0 -375 0 0 -1695z"/>
<path d="M1850 2455 l0 -1695 375 0 375 0 0 1695 0 1695 -375 0 -375 0 0
-1695z"/>
<path d="M3040 2455 l0 -1695 375 0 375 0 0 1695 0 1695 -375 0 -375 0 0
-1695z"/>
<path d="M4230 2455 l0 -1695 375 0 375 0 0 1360 0 1360 370 0 370 0 0 335 0
335 -745 0 -745 0 0 -1695z"/>
<path d="M6160 3781 l0 -328 50 -21 c60 -25 176 -99 243 -156 72 -60 171 -188
221 -286 186 -362 164 -833 -55 -1159 -139 -209 -341 -347 -608 -419 -87 -23
-118 -26 -343 -30 l-248 -4 0 -309 0 -309 218 0 c317 0 509 26 735 100 707
233 1155 846 1157 1583 1 803 -499 1448 -1280 1647 -43 11 -81 20 -84 20 -3 0
-6 -148 -6 -329z"/>
</g>
</svg>
